<svg height='100px' width='100px'  fill="currentColor" xmlns="http://www.w3.org/2000/svg" xmlns:xlink="http://www.w3.org/1999/xlink" version="1.0" x="0px" y="0px" viewBox="0 0 100 100" enable-background="new 0 0 100 100" xml:space="preserve"><path d="M76.667,44.219l-18.422-2.582l-8.242-16.081l-8.242,16.081l-18.428,2.582L36.67,56.741l-3.138,17.702l16.471-8.353  l16.494,8.353l-3.164-17.702L76.667,44.219z"></path><polygon points="27.679,69.968 10,85.286 14.713,90 30.036,72.324 "></polygon><polygon points="72.324,69.961 69.968,72.317 85.286,89.997 90,85.283 "></polygon><polygon points="29.115,57.728 10,63.841 12.55,70 30.391,60.808 "></polygon><polygon points="70.886,57.728 69.609,60.808 87.448,70 90,63.841 "></polygon><polygon points="37.826,10 31.667,12.552 40.863,30.391 43.942,29.115 "></polygon><polygon points="62.175,10 56.058,29.115 59.138,30.391 68.333,12.552 "></polygon><polygon points="46.667,90 48.333,73.333 51.667,73.333 53.333,90 "></polygon><polygon points="14.713,10 10,14.713 34.75,37.106 37.106,34.75 "></polygon><polygon points="85.283,10 62.891,34.752 65.247,37.109 90,14.713 "></polygon><polygon points="12.552,30 10,36.159 22.959,39.72 24.232,36.641 "></polygon><polygon points="87.448,30 75.769,36.641 77.041,39.72 90,36.159 "></polygon><circle cx="20.833" cy="54.167" r="2.5"></circle><circle cx="50" cy="16.667" r="2.5"></circle><circle cx="40.833" cy="79.167" r="2.5"></circle><circle cx="30.833" cy="87.5" r="2.5"></circle><circle cx="12.5" cy="45.833" r="2.5"></circle><circle cx="79.167" cy="54.167" r="2.5"></circle><circle cx="59.167" cy="79.167" r="2.5"></circle><circle cx="69.167" cy="87.5" r="2.5"></circle><circle cx="87.5" cy="45.833" r="2.5"></circle></svg>