<?xml version="1.0" encoding="UTF-8" standalone="no"?>
<!DOCTYPE svg PUBLIC "-//W3C//DTD SVG 1.1//EN" "http://www.w3.org/Graphics/SVG/1.1/DTD/svg11.dtd">
<svg width="100%" height="100%" viewBox="0 0 84 97" version="1.1" xmlns="http://www.w3.org/2000/svg" xmlns:xlink="http://www.w3.org/1999/xlink" xml:space="preserve" xmlns:serif="http://www.serif.com/" style="fill-rule:evenodd;clip-rule:evenodd;stroke-linejoin:round;stroke-miterlimit:2;">
    <g>
        <path d="M42,0C40.895,0 40,0.895 40,2L40,10C40,11.105 40.895,12 42,12C43.105,12 44,11.105 44,10L44,2C44,0.895 43.105,0 42,0ZM13.719,11.719C13.207,11.719 12.703,11.922 12.313,12.313C11.532,13.093 11.532,14.344 12.313,15.125L17.969,20.781C18.75,21.562 20,21.562 20.781,20.781C21.562,20 21.562,18.75 20.781,17.969L15.125,12.313C14.735,11.922 14.231,11.719 13.719,11.719ZM70.281,11.719C69.77,11.719 69.266,11.922 68.875,12.313L63.219,17.969C62.438,18.75 62.438,20 63.219,20.781C64,21.562 65.25,21.562 66.031,20.781L71.688,15.125C72.469,14.344 72.469,13.093 71.688,12.313C71.297,11.922 70.793,11.719 70.281,11.719ZM42,18C29.805,18 18,27.461 18,40.844C18,58.208 31,61.844 31,74L53,74C53,61.844 66,58.208 66,40.844C66,27.461 54.195,18 42,18L42,18ZM35.844,24.063L35.875,24.063C35.927,24.06 35.979,24.06 36.031,24.063C37.125,24.068 38.022,24.969 38.022,26.063C38.022,26.897 37.5,27.647 36.719,27.937C31.845,29.775 28.183,34.09 27.25,39.344C27.077,40.291 26.244,40.986 25.281,40.986C24.183,40.986 23.28,40.082 23.28,38.984C23.28,38.864 23.291,38.744 23.312,38.625C24.494,31.974 29.1,26.55 35.281,24.219C35.46,24.139 35.649,24.087 35.844,24.063ZM2,40C0.895,40 0,40.895 0,42C0,43.105 0.895,44 2,44L10,44C11.105,44 12,43.105 12,42C12,40.895 11.105,40 10,40L2,40ZM74,40C72.895,40 72,40.895 72,42C72,43.105 72.895,44 74,44L82,44C83.105,44 84,43.105 84,42C84,40.895 83.105,40 82,40L74,40ZM31,78L31,82L53,82L53,78L31,78ZM31,86C31,88.298 32.89,90 35,90L49,90C51.111,90 53,88.298 53,86L31,86ZM38,92C38,94.216 39.784,96 42,96C44.216,96 46,94.216 46,92L38,92Z" style="fill:rgb(255,199,63);fill-rule:nonzero;"/>
    </g>
</svg>
