<svg width="100%" height="100%" viewBox="0 0 10 10" version="1.1" xmlns="http://www.w3.org/2000/svg" xmlns:xlink="http://www.w3.org/1999/xlink" xml:space="preserve" xmlns:serif="http://www.serif.com/" style="fill-rule:evenodd;clip-rule:evenodd;stroke-linejoin:round;stroke-miterlimit:2;">
    <g transform="matrix(0.555556,0,0,0.555556,0,0)">
        <g transform="matrix(1.94648,0,0,2.12483,-8.59881,-9.20476)">
            <path d="M6.818,9.72C6.536,9.778 6.254,9.84 5.971,9.894C5.677,9.96 5.377,9.993 5.076,9.991C4.941,9.991 4.815,9.921 4.742,9.808C4.643,9.673 4.58,9.514 4.56,9.348C4.533,9.13 4.489,8.915 4.428,8.704C4.4,8.592 4.429,8.474 4.506,8.388C4.528,8.356 4.55,8.326 4.565,8.304C4.962,8.245 5.351,8.184 5.738,8.128C6.018,8.083 6.296,8.029 6.578,7.987C6.698,7.969 6.818,7.974 6.938,7.963C7.028,7.955 7.117,7.939 7.229,7.924C7.122,7.814 7.033,7.727 6.947,7.637C6.467,7.134 5.987,6.63 5.507,6.13C5.463,6.094 5.451,6.032 5.477,5.982C5.52,5.822 5.64,5.712 5.726,5.58C5.813,5.485 5.932,5.426 6.06,5.416C6.229,5.378 6.402,5.354 6.568,5.308C6.692,5.262 6.832,5.291 6.928,5.383C7.067,5.514 7.199,5.652 7.332,5.79C7.37,5.833 7.406,5.878 7.44,5.924L7.476,5.905C7.476,5.875 7.483,5.846 7.482,5.816C7.461,5.446 7.477,5.075 7.529,4.708C7.536,4.646 7.531,4.585 7.514,4.525C7.511,4.516 7.509,4.507 7.509,4.497C7.509,4.46 7.534,4.427 7.57,4.417C7.62,4.394 7.667,4.363 7.723,4.332L8.694,4.452C8.751,4.46 8.808,4.472 8.863,4.488C8.965,4.516 9.047,4.594 9.08,4.694C9.146,4.899 9.172,5.115 9.155,5.329C9.155,5.85 9.155,6.371 9.146,6.889L9.146,7.037C9.18,7.014 9.211,6.988 9.24,6.96C9.582,6.551 9.922,6.142 10.262,5.731L11.28,4.511C11.414,4.58 11.558,4.57 11.668,4.675C11.76,4.748 11.804,4.868 11.78,4.984C11.762,5.062 11.779,5.144 11.826,5.209C11.848,5.244 11.865,5.28 11.879,5.318C11.887,5.335 11.891,5.353 11.891,5.371C11.891,5.417 11.865,5.459 11.824,5.479C11.742,5.534 11.665,5.597 11.594,5.665C11.555,5.699 11.522,5.74 11.497,5.785C11.293,6.208 10.973,6.547 10.693,6.916C10.609,7.026 10.517,7.13 10.433,7.241C10.399,7.294 10.369,7.35 10.343,7.408C10.48,7.392 10.583,7.382 10.69,7.367L12.698,7.062C12.754,7.054 12.818,7.019 12.859,7.04C12.939,7.084 13.006,7.147 13.054,7.224C13.074,7.272 13.121,7.303 13.174,7.303C13.327,7.326 13.453,7.437 13.494,7.586C13.55,7.769 13.595,7.954 13.628,8.142C13.643,8.209 13.65,8.279 13.66,8.346C13.685,8.51 13.624,8.575 13.459,8.593C13.166,8.624 12.872,8.654 12.583,8.713C11.97,8.833 11.36,8.96 10.748,9.085C10.729,9.091 10.71,9.098 10.692,9.106C10.715,9.148 10.741,9.188 10.771,9.226C11.206,9.685 11.667,10.119 12.152,10.524C12.283,10.628 12.419,10.728 12.544,10.84C12.597,10.892 12.64,10.954 12.671,11.022C12.688,11.06 12.688,11.104 12.671,11.142C12.514,11.441 12.338,11.73 12.042,11.911C11.905,12.009 11.73,12.037 11.569,11.987C11.503,11.968 11.433,11.968 11.366,11.987C11.298,12.005 11.226,11.979 11.184,11.923C10.868,11.592 10.56,11.262 10.238,10.944C9.998,10.712 9.758,10.496 9.511,10.273C9.432,10.2 9.36,10.126 9.248,10.026C9.248,10.177 9.24,10.29 9.248,10.402C9.301,10.978 9.359,11.554 9.415,12.131C9.428,12.186 9.435,12.243 9.436,12.3C9.412,12.41 9.328,12.497 9.22,12.524C9.032,12.6 8.837,12.656 8.652,12.734C8.551,12.779 8.433,12.771 8.339,12.713C8.284,12.683 8.232,12.648 8.173,12.613L7.933,10.53C7.902,10.558 7.874,10.588 7.847,10.62C7.567,11.011 7.287,11.403 7.007,11.795C6.813,12.069 6.622,12.345 6.433,12.623C6.349,12.782 6.152,12.848 5.989,12.772C5.724,12.684 5.478,12.549 5.262,12.372C5.229,12.348 5.199,12.32 5.172,12.29C5.124,12.245 5.097,12.182 5.097,12.116C5.097,12.05 5.124,11.987 5.172,11.941C5.409,11.674 5.63,11.394 5.834,11.101C6.053,10.776 6.305,10.475 6.539,10.16C6.638,10.027 6.73,9.889 6.824,9.754L6.818,9.72ZM8.708,11.738C8.679,11.893 8.705,12.053 8.783,12.19L8.708,11.738Z" style="fill:rgb(255,199,63);fill-rule:nonzero;"/>
        </g>
    </g>
</svg>
