<svg height='100px' width='100px'  fill="currentColor" xmlns:x="http://ns.adobe.com/Extensibility/1.0/" xmlns:i="http://ns.adobe.com/AdobeIllustrator/10.0/" xmlns:graph="http://ns.adobe.com/Graphs/1.0/" xmlns="http://www.w3.org/2000/svg" xmlns:xlink="http://www.w3.org/1999/xlink" version="1.1" x="0px" y="0px" viewBox="0 0 100 100" style="enable-background:new 0 0 100 100;" xml:space="preserve"><g><g i:extraneous="self"><g><path d="M5273.1,2400.1v-2c0-2.8-5-4-9.7-4s-9.7,1.3-9.7,4v2c0,1.8,0.7,3.6,2,4.9l5,4.9c0.3,0.3,0.4,0.6,0.4,1v6.4     c0,0.4,0.2,0.7,0.6,0.8l2.9,0.9c0.5,0.1,1-0.2,1-0.8v-7.2c0-0.4,0.2-0.7,0.4-1l5.1-5C5272.4,2403.7,5273.1,2401.9,5273.1,2400.1z      M5263.4,2400c-4.8,0-7.4-1.3-7.5-1.8v0c0.1-0.5,2.7-1.8,7.5-1.8c4.8,0,7.3,1.3,7.5,1.8C5270.7,2398.7,5268.2,2400,5263.4,2400z"></path><path d="M5268.4,2410.3c-0.6,0-1,0.4-1,1c0,0.6,0.4,1,1,1h4.3c0.6,0,1-0.4,1-1c0-0.6-0.4-1-1-1H5268.4z"></path><path d="M5272.7,2413.7h-4.3c-0.6,0-1,0.4-1,1c0,0.6,0.4,1,1,1h4.3c0.6,0,1-0.4,1-1C5273.7,2414.1,5273.3,2413.7,5272.7,2413.7z"></path><path d="M5272.7,2417h-4.3c-0.6,0-1,0.4-1,1c0,0.6,0.4,1,1,1h4.3c0.6,0,1-0.4,1-1C5273.7,2417.5,5273.3,2417,5272.7,2417z"></path></g><g><path d="M54.4,71.9c6.1-2.2,9.7-3.5,15.8-5.8c8.1-2.9,7-11.5,5.2-20c-1.8-8.5-7.1-31.6-7.1-31.6c-0.5-2-2.5-3.3-4.6-2.8     c-2.1,0.5-3.3,2.5-2.8,4.6L64.9,33c0.1,0.6-0.2,1.2-0.8,1.4l-0.1,0c-0.6,0.2-1.3-0.1-1.5-0.8l-6.7-21.1c-0.6-2-2.8-3.1-4.8-2.5     c-2,0.6-3.1,2.8-2.5,4.8l6.7,21.1c0.2,0.6-0.1,1.3-0.8,1.5c-0.6,0.2-1.2-0.1-1.4-0.7L42.8,13.1c-0.8-1.9-3.1-2.8-5-2     c-1.9,0.8-2.8,3.1-2,5l9.9,22.6c0.3,0.6-0.1,1.4-0.7,1.6l-0.4,0.1c-0.5,0.2-1.1-0.1-1.4-0.5L33,22.2c-1-1.8-3.4-2.4-5.2-1.4     c-1.8,1-2.4,3.4-1.4,5.2c0,0,8.5,14.4,10.1,17.6c1.6,3.2,2.5,5,3.7,7.9c0.7,1.6-0.3,3.2-2.5,2.2c0,0-4.4-2.6-6.9-3.8     c-2.4-1.1-4.5-1.1-6,0.7c-1.5,1.9-1.1,4.7,0.9,6.1c0,0,12.3,9.8,19,13.3C47.8,71.5,51.4,73,54.4,71.9z"></path><path d="M79.5,70.2c-0.5-1.4-2-2.1-3.4-1.6l-22.3,8.1c-1.4,0.5-2.1,2-1.6,3.4l3,8.3c0.5,1.4,2,2.1,3.4,1.6l22.3-8.1     c1.4-0.5,2.1-2,1.6-3.4L79.5,70.2z"></path><path d="M79.9,22.2c-1.1,0.6-1.5,2-0.9,3.1c3.4,6.3,4.9,15.2,4.2,24.9c-0.1,1.3,0.9,2.4,2.1,2.5c0.1,0,0.1,0,0.2,0     c1.2,0,2.2-0.9,2.3-2.2c0.7-10.8-0.9-20.2-4.8-27.4C82.4,22.1,81,21.6,79.9,22.2z"></path><path d="M92.6,21.9c-0.6-1.1-2-1.5-3.1-0.9c-1.1,0.6-1.5,2-0.9,3.1c3.5,6.6,5,15.9,4.1,26.1c-0.1,1.3,0.8,2.4,2.1,2.5     c0.1,0,0.1,0,0.2,0c1.2,0,2.2-0.9,2.3-2.1C98.2,39.5,96.5,29.3,92.6,21.9z"></path><path d="M16.9,36.9c0.1-1.3-0.9-2.4-2.1-2.5c-1.3-0.1-2.4,0.9-2.5,2.1C11.5,47.3,13.2,56.8,17,64c0.4,0.8,1.2,1.2,2,1.2     c0.4,0,0.7-0.1,1.1-0.3c1.1-0.6,1.5-2,0.9-3.1C17.7,55.5,16.2,46.6,16.9,36.9z"></path><path d="M7.4,36.9c0.1-1.3-0.8-2.4-2.1-2.5c-1.3-0.1-2.4,0.8-2.5,2.1c-1,11.1,0.7,21.3,4.7,28.7c0.4,0.8,1.2,1.2,2,1.2     c0.4,0,0.7-0.1,1.1-0.3c1.1-0.6,1.5-2,0.9-3.1C7.9,56.4,6.5,47.2,7.4,36.9z"></path></g></g></g></svg>